:SAMPLES-PER-SECOND 30
:FULLY-SPECIFIED
:DEGREES
342
root  7.87186 34.0891 3.56829 6.00505 -19.6807 0.934448
LeftUpLeg  -7.67162 14.3889 0.931565
LeftLeg  14.455 15.1463 2.84456
LeftFoot  -1.11928 -0.00768119 -0.340289
LeftToes  -16.3652 1.85109e-006 5.31342e-008
Spine  2.33381 0.309884 0.732165
Spine1  4.53911 0.347538 1.60091
RightShoulder  0.0973306 5.53262 10.4945
RightArm  -47.3725 -20.3728 66.3008
RightForeArm  46.1696 9.35223 1.646
RightHand  1.20171 -14.0664 -9.34317
LeftShoulder1  0.0136701 2.35414 -9.89175
LeftArm  -18.0703 15.212 -67.5408
LeftForeArm  32.2406 -18.8023 -3.43233
LeftHand  0.0265916 1.02543 2.58343
HEad  -14.7359 6.51308 -2.68743
RightUpLeg  -15.3624 -19.1541 2.68655
RightLeg  11.0452 -29.8701 -3.66164
RightFoot  4.77539 0.133816 -2.83042
RightToes  -24.8908 -0.110367 -0.214935
343
root  8.09749 34.0781 3.43313 5.83904 -19.2713 0.993576
LeftUpLeg  -8.07762 14.5203 0.57979
LeftLeg  14.778 14.5389 2.81699
LeftFoot  -1.40828 -0.00486948 -0.396214
LeftToes  -15.79 1.85109e-006 5.31342e-008
Spine  2.46865 0.212336 0.604513
Spine1  4.78898 0.170571 1.3589
RightShoulder  0.0905821 5.38149 10.3719
RightArm  -46.9979 -19.705 66.6739
RightForeArm  44.2438 10.5926 1.87337
RightHand  1.19932 -14.0574 -9.33024
LeftShoulder1  0.0201698 1.92343 -9.91394
LeftArm  -18.7406 14.5171 -67.5171
LeftForeArm  32.7337 -17.5758 -3.19246
LeftHand  0.0361256 1.33489 2.71614
HEad  -15.3079 6.76764 -2.80876
RightUpLeg  -15.6602 -19.5851 2.39986
RightLeg  11.2756 -29.8511 -3.77572
RightFoot  5.35126 0.165114 -3.15408
RightToes  -26.1824 -0.118536 -0.224577
344
root  8.30437 34.0721 3.28426 5.61252 -18.8953 1.10071
LeftUpLeg  -8.52725 14.839 0.219941
LeftLeg  15.2537 13.7998 2.79444
LeftFoot  -1.64885 -0.00375586 -0.429801
LeftToes  -15.2066 1.85109e-006 5.31342e-008
Spine  2.59768 0.0889765 0.467096
Spine1  5.03222 -0.0449871 1.08172
RightShoulder  0.0823775 5.24157 10.2641
RightArm  -46.398 -18.819 67.1191
RightForeArm  41.9365 11.9701 2.12817
RightHand  1.1928 -14.0697 -9.26928
LeftShoulder1  0.0260603 1.54163 -9.74025
LeftArm  -19.0008 13.9569 -67.5567
LeftForeArm  33.3049 -16.5475 -2.99381
LeftHand  0.0420493 1.60915 2.61234
HEad  -15.6711 7.14227 -2.9595
RightUpLeg  -15.9152 -20.3996 2.15259
RightLeg  11.4081 -29.4526 -3.79625
RightFoot  5.87727 0.193694 -3.39389
RightToes  -27.2876 -0.125696 -0.232679
345
root  8.50092 34.0718 3.13152 5.41853 -18.6868 1.29047
LeftUpLeg  -8.83239 14.7655 -0.234672
LeftLeg  15.3665 13.588 2.77995
LeftFoot  -1.6819 -0.00509513 -0.424188
LeftToes  -14.9099 1.85109e-006 5.31342e-008
Spine  2.66458 -0.0289562 0.320102
Spine1  5.15302 -0.248661 0.782351
RightShoulder  0.074299 5.08639 10.1136
RightArm  -45.7221 -17.7195 67.6555
RightForeArm  39.797 13.2335 2.36403
RightHand  1.21947 -14.2183 -9.38025
LeftShoulder1  0.0302769 1.32587 -9.62091
LeftArm  -18.6724 13.6418 -67.4833
LeftForeArm  33.7787 -15.9502 -2.87935
LeftHand  0.0414186 1.68968 2.40187
HEad  -15.6254 7.58095 -3.23849
RightUpLeg  -16.2477 -21.222 1.90317
RightLeg  11.5046 -28.8876 -3.77756
RightFoot  6.36275 0.219918 -3.57709
RightToes  -28.2308 -0.13193 -0.239484
346
root  8.68816 34.0751 2.98123 5.31569 -18.7021 1.40228
LeftUpLeg  -9.00249 14.4819 -0.634122
LeftLeg  15.1239 13.8368 2.76954
LeftFoot  -1.60575 -0.00570057 -0.406789
LeftToes  -14.418 1.85109e-006 5.31342e-008
Spine  2.69719 -0.0800818 0.209815
Spine1  5.2072 -0.323748 0.555178
RightShoulder  0.0691504 5.02859 9.98121
RightArm  -45.2435 -16.5679 68.198
RightForeArm  38.631 14.4365 2.58985
RightHand  1.23477 -14.231 -9.49316
LeftShoulder1  0.0335502 1.14644 -9.59185
LeftArm  -18.2437 13.5321 -67.3273
LeftForeArm  33.9962 -15.8478 -2.85968
LeftHand  0.0383885 1.69535 2.15981
HEad  -15.4565 7.94836 -3.4843
RightUpLeg  -16.57 -21.4676 1.70579
RightLeg  11.4878 -28.63 -3.7388
RightFoot  6.86284 0.250987 -3.80603
RightToes  -28.4861 -0.133637 -0.241308
